<?xml version="1.0" encoding="UTF-8"?>
<svg width="59px" height="41px" viewBox="0 0 59 41" version="1.1" xmlns="http://www.w3.org/2000/svg" xmlns:xlink="http://www.w3.org/1999/xlink">
    <!-- Generator: Sketch 49.2 (51160) - http://www.bohemiancoding.com/sketch -->
    <title>W-Logo_Purple (2)</title>
    <desc>Created with Sketch.</desc>
    <defs>
        <polygon id="path-1" points="0 0.38 59 0.38 59 40.052037 0 40.052037"></polygon>
    </defs>
    <g id="Page-1" stroke="none" stroke-width="1" fill="none" fill-rule="evenodd">
        <g id="W-Logo_Purple-(2)">
            <mask id="mask-2" fill="white">
                <use xlink:href="#path-1"></use>
            </mask>
            <g id="Clip-2"></g>
            <path d="M43.2988981,0.38 C43.2988981,0.848722222 43.2988981,7.06557407 43.2988981,7.53538889 C43.7665278,7.53538889 48.3281019,7.53538889 48.3281019,7.53538889 L42.7132685,28.4312222 C42.7132685,28.4312222 35.8419537,0.769509259 35.744713,0.38 C35.3694074,0.38 28.8471759,0.38 28.4773333,0.38 C28.3746296,0.760222222 20.9406296,28.4334074 20.9406296,28.4334074 L15.7693889,7.53538889 C15.7693889,7.53538889 20.5363704,7.53538889 21.0056389,7.53538889 C21.0056389,7.06557407 21.0056389,0.848722222 21.0056389,0.38 C20.5035926,0.38 0.502046296,0.38 0,0.38 C0,0.848722222 0,7.06557407 0,7.53538889 C0.464898148,7.53538889 4.65444444,7.53538889 4.65444444,7.53538889 C4.65444444,7.53538889 12.6866389,39.6619815 12.7833333,40.052037 C13.1701111,40.052037 23.6775741,40.052037 24.0588889,40.052037 C24.1588611,39.6712685 29.441,19.5910556 29.441,19.5910556 C29.441,19.5910556 34.4598241,39.6658056 34.5565185,40.052037 C34.94275,40.052037 45.450213,40.052037 45.8315278,40.052037 C45.9325926,39.668537 54.3843426,7.53538889 54.3843426,7.53538889 C54.3843426,7.53538889 58.5356481,7.53538889 59,7.53538889 C59,7.06557407 59,0.848722222 59,0.38 C58.503963,0.38 43.7949352,0.38 43.2988981,0.38" id="Fill-1" fill="#FFFFFF" mask="url(#mask-2)"></path>
        </g>
    </g>
</svg>